<?xml version="1.0" encoding="UTF-8" standalone="no"?>
<svg
   width="241.5pt"
   height="66pt"
   viewBox="0 0 241.5 66"
   version="1.2"
   id="svg99"
   sodipodi:docname="WGQED.svg"
   inkscape:version="1.1 (c4e8f9ed74, 2021-05-24)"
   xmlns:inkscape="http://www.inkscape.org/namespaces/inkscape"
   xmlns:sodipodi="http://sodipodi.sourceforge.net/DTD/sodipodi-0.dtd"
   xmlns="http://www.w3.org/2000/svg"
   xmlns:svg="http://www.w3.org/2000/svg">
  <sodipodi:namedview
     id="namedview101"
     pagecolor="#ffffff"
     bordercolor="#666666"
     borderopacity="1.0"
     inkscape:pageshadow="2"
     inkscape:pageopacity="0.0"
     inkscape:pagecheckerboard="0"
     inkscape:document-units="pt"
     showgrid="false"
     inkscape:zoom="4.7391304"
     inkscape:cx="198.24312"
     inkscape:cy="-34.288991"
     inkscape:window-width="3840"
     inkscape:window-height="2107"
     inkscape:window-x="0"
     inkscape:window-y="27"
     inkscape:window-maximized="1"
     inkscape:current-layer="surface818" />
  <defs
     id="defs26">
    <clipPath
       id="clip1">
      <path
         d="M 128 33 L 186 33 L 186 65.25 L 128 65.25 Z M 128 33 "
         id="path2" />
    </clipPath>
    <clipPath
       id="clip2">
      <path
         d="M 171 0 L 241.5 0 L 241.5 65.25 L 171 65.25 Z M 171 0 "
         id="path5" />
    </clipPath>
    <clipPath
       id="clip3">
      <path
         d="M 4.34375 4.085938 L 12.226562 4.085938 L 12.226562 19.898438 L 4.34375 19.898438 Z M 4.34375 4.085938 "
         id="path8" />
    </clipPath>
    <clipPath
       id="clip4">
      <path
         d="M 13 12.300781 L 16.828125 12.300781 L 16.828125 22.898438 L 13 22.898438 Z M 13 12.300781 "
         id="path11" />
    </clipPath>
    <clipPath
       id="clip5">
      <path
         d="M 4.3125 37.558594 L 12.3125 37.558594 L 12.3125 53.300781 L 4.3125 53.300781 Z M 4.3125 37.558594 "
         id="path14" />
    </clipPath>
    <clipPath
       id="clip6">
      <path
         d="M 13 49.371094 L 20.3125 49.371094 L 20.3125 56.558594 L 13 56.558594 Z M 13 49.371094 "
         id="path17" />
    </clipPath>
    <clipPath
       id="clip7">
      <path
         d="M 21.3125 49.359375 L 29.8125 49.359375 L 29.8125 56.558594 L 21.3125 56.558594 Z M 21.3125 49.359375 "
         id="path20" />
    </clipPath>
    <clipPath
       id="clip8">
      <path
         d="M 30.3125 46.558594 L 35.796875 46.558594 L 35.796875 56.558594 L 30.3125 56.558594 Z M 30.3125 46.558594 "
         id="path23" />
    </clipPath>
  </defs>
  <g
     id="surface818">
    <path
       style="fill:none;stroke-width:0.979797;stroke-linecap:butt;stroke-linejoin:miter;stroke:rgb(0%,0%,0%);stroke-opacity:1;stroke-miterlimit:10;"
       d="M 136.210938 6.558594 C 145.609375 -0.601562 158.847656 1.101562 167.960938 9.917969 "
       id="path28" />
    <path
       style=" stroke:none;fill-rule:nonzero;fill:rgb(0%,0%,0%);fill-opacity:1;"
       d="M 171.8125 14.429688 C 169.230469 13.039062 165.675781 11.648438 162.910156 11.316406 L 167.398438 9.382812 L 169.65625 4.90625 C 169.722656 7.804688 170.722656 11.621094 171.8125 14.429688 "
       id="path30" />
    <g
       clip-path="url(#clip1)"
       clip-rule="nonzero"
       id="g34">
      <path
         style="fill:none;stroke-width:0.979797;stroke-linecap:butt;stroke-linejoin:miter;stroke:rgb(0%,0%,0%);stroke-opacity:1;stroke-miterlimit:10;"
         d="M 171.550781 46.972656 C 166.378906 57.839844 153.882812 62.683594 141.890625 59.242188 "
         id="path32" />
    </g>
    <path
       style=" stroke:none;fill-rule:nonzero;fill:rgb(0%,0%,0%);fill-opacity:1;"
       d="M 136.472656 57.089844 C 139.378906 57.078125 143.152344 56.609375 145.75 55.574219 L 142.625 59.445312 L 142.597656 64.5 C 141.261719 61.960938 138.683594 59.054688 136.472656 57.089844 "
       id="path36" />
    <g
       clip-path="url(#clip2)"
       clip-rule="nonzero"
       id="g40">
      <path
         style="fill:none;stroke-width:1.24336;stroke-linecap:butt;stroke-linejoin:miter;stroke:rgb(0%,0%,0%);stroke-opacity:1;stroke-miterlimit:4;"
         d="M 239.894531 -32.582031 C 239.894531 -50.234375 226.160156 -64.539062 209.214844 -64.539062 C 192.269531 -64.539062 178.535156 -50.234375 178.535156 -32.582031 C 178.535156 -14.933594 192.269531 -0.621094 209.214844 -0.621094 C 226.160156 -0.621094 239.894531 -14.933594 239.894531 -32.582031 Z M 239.894531 -32.582031 "
         transform="matrix(1,0,0,-1,0,0)"
         id="path38" />
    </g>
    <path
       style="fill:none;stroke-width:0.979797;stroke-linecap:butt;stroke-linejoin:miter;stroke:rgb(0%,0%,0%);stroke-opacity:1;stroke-miterlimit:4;"
       d="M 191.273438 -19.824219 L 226.933594 -19.824219 "
       transform="matrix(1,0,0,-1,0,0)"
       id="path42" />
    <path
       style="fill:none;stroke-width:0.979797;stroke-linecap:butt;stroke-linejoin:miter;stroke:rgb(0%,0%,0%);stroke-opacity:1;stroke-miterlimit:4;"
       d="M 191.117188 -44.964844 L 226.777344 -44.964844 "
       transform="matrix(1,0,0,-1,0,0)"
       id="path44" />
    <path
       style=" stroke:none;fill-rule:nonzero;fill:rgb(0%,0%,0%);fill-opacity:1;"
       d="M 204.082031 3.695312 C 204.082031 3.476562 204.082031 3.238281 203.855469 3.238281 C 203.601562 3.238281 203.601562 3.476562 203.601562 3.695312 L 203.601562 15.527344 C 203.601562 15.746094 203.601562 15.988281 203.855469 15.988281 C 204.082031 15.988281 204.082031 15.746094 204.082031 15.527344 Z M 204.082031 3.695312 "
       id="path46" />
    <path
       style=" stroke:none;fill-rule:nonzero;fill:rgb(0%,0%,0%);fill-opacity:1;"
       d="M 207.820312 9.863281 C 208.183594 9.863281 209.085938 9.824219 209.695312 9.5625 C 210.558594 9.183594 210.617188 8.421875 210.617188 8.242188 C 210.617188 7.6875 210.15625 7.164062 209.3125 7.164062 C 207.957031 7.164062 206.097656 8.40625 206.097656 10.640625 C 206.097656 11.9375 206.824219 12.933594 208.03125 12.933594 C 209.773438 12.933594 210.792969 11.574219 210.792969 11.4375 C 210.792969 11.359375 210.730469 11.253906 210.65625 11.253906 C 210.578125 11.253906 210.558594 11.296875 210.484375 11.398438 C 209.527344 12.65625 208.183594 12.65625 208.050781 12.65625 C 207.09375 12.65625 206.976562 11.574219 206.976562 11.175781 C 206.976562 11.019531 206.996094 10.640625 207.167969 9.863281 Z M 207.246094 9.578125 C 207.722656 7.648438 208.988281 7.449219 209.3125 7.449219 C 209.867188 7.449219 210.214844 7.824219 210.214844 8.242188 C 210.214844 9.578125 208.261719 9.578125 207.742188 9.578125 Z M 207.246094 9.578125 "
       id="path48" />
    <path
       style=" stroke:none;fill-rule:nonzero;fill:rgb(0%,0%,0%);fill-opacity:1;"
       d="M 214.558594 9.824219 C 214.617188 9.683594 214.617188 9.644531 214.617188 9.601562 C 214.617188 9.578125 214.617188 9.539062 214.558594 9.402344 L 212.433594 3.535156 C 212.359375 3.316406 212.28125 3.238281 212.144531 3.238281 C 212.015625 3.238281 211.898438 3.359375 211.898438 3.492188 C 211.898438 3.535156 211.898438 3.558594 211.953125 3.695312 L 214.121094 9.601562 L 211.953125 15.488281 C 211.898438 15.625 211.898438 15.664062 211.898438 15.730469 C 211.898438 15.867188 212.015625 15.988281 212.144531 15.988281 C 212.300781 15.988281 212.359375 15.847656 212.398438 15.730469 Z M 214.558594 9.824219 "
       id="path50" />
    <path
       style=" stroke:none;fill-rule:nonzero;fill:rgb(0%,0%,0%);fill-opacity:1;"
       d="M 203.921875 48.730469 C 203.921875 48.507812 203.921875 48.273438 203.691406 48.273438 C 203.445312 48.273438 203.445312 48.507812 203.445312 48.730469 L 203.445312 60.5625 C 203.445312 60.78125 203.445312 61.023438 203.691406 61.023438 C 203.921875 61.023438 203.921875 60.78125 203.921875 60.5625 Z M 203.921875 48.730469 "
       id="path52" />
    <path
       style=" stroke:none;fill-rule:nonzero;fill:rgb(0%,0%,0%);fill-opacity:1;"
       d="M 211.132812 53.023438 C 211.152344 52.957031 211.171875 52.878906 211.171875 52.796875 C 211.171875 52.578125 211.035156 52.460938 210.824219 52.460938 C 210.710938 52.460938 210.363281 52.539062 210.328125 52.996094 C 210.097656 52.539062 209.675781 52.199219 209.179688 52.199219 C 207.800781 52.199219 206.285156 53.980469 206.285156 55.816406 C 206.285156 57.070312 207.011719 57.828125 207.894531 57.828125 C 208.625 57.828125 209.199219 57.230469 209.308594 57.089844 L 209.332031 57.113281 C 209.082031 58.230469 208.929688 58.769531 208.929688 58.785156 C 208.871094 58.90625 208.46875 60.160156 207.164062 60.160156 C 206.9375 60.160156 206.535156 60.144531 206.191406 60.023438 C 206.554688 59.921875 206.6875 59.582031 206.6875 59.367188 C 206.6875 59.164062 206.554688 58.925781 206.226562 58.925781 C 205.960938 58.925781 205.574219 59.148438 205.574219 59.664062 C 205.574219 60.183594 206.019531 60.445312 207.183594 60.445312 C 208.71875 60.445312 209.597656 59.445312 209.789062 58.6875 Z M 209.5625 56.195312 C 209.484375 56.53125 209.199219 56.851562 208.929688 57.089844 C 208.679688 57.3125 208.296875 57.546875 207.933594 57.546875 C 207.320312 57.546875 207.148438 56.890625 207.148438 56.371094 C 207.148438 55.773438 207.492188 54.253906 207.835938 53.617188 C 208.164062 52.996094 208.679688 52.484375 209.199219 52.484375 C 210 52.484375 210.171875 53.519531 210.171875 53.578125 C 210.171875 53.640625 210.152344 53.714844 210.136719 53.757812 Z M 209.5625 56.195312 "
       id="path54" />
    <path
       style=" stroke:none;fill-rule:nonzero;fill:rgb(0%,0%,0%);fill-opacity:1;"
       d="M 214.980469 54.855469 C 215.039062 54.714844 215.039062 54.675781 215.039062 54.632812 C 215.039062 54.617188 215.039062 54.574219 214.980469 54.4375 L 212.855469 48.570312 C 212.777344 48.351562 212.699219 48.273438 212.570312 48.273438 C 212.433594 48.273438 212.316406 48.390625 212.316406 48.53125 C 212.316406 48.570312 212.316406 48.589844 212.378906 48.730469 L 214.542969 54.632812 L 212.378906 60.523438 C 212.316406 60.660156 212.316406 60.699219 212.316406 60.757812 C 212.316406 60.902344 212.433594 61.023438 212.570312 61.023438 C 212.722656 61.023438 212.777344 60.878906 212.816406 60.757812 Z M 214.980469 54.855469 "
       id="path56" />
    <path
       style=" stroke:none;fill-rule:nonzero;fill:rgb(0%,0%,0%);fill-opacity:1;"
       d="M 146.199219 29.855469 C 147.042969 27.265625 149.375 27.246094 149.601562 27.246094 C 152.855469 27.246094 153.101562 31.167969 153.101562 32.941406 C 153.101562 34.316406 152.988281 34.695312 152.835938 35.132812 C 152.355469 36.765625 151.726562 39.371094 151.726562 39.949219 C 151.726562 40.210938 151.824219 40.347656 151.996094 40.347656 C 152.28125 40.347656 152.453125 39.871094 152.679688 39.015625 C 153.175781 37.121094 153.390625 35.847656 153.484375 35.152344 C 153.519531 34.871094 153.5625 34.574219 153.65625 34.296875 C 154.34375 32.066406 155.722656 28.742188 156.582031 26.96875 C 156.734375 26.691406 156.980469 26.191406 156.980469 26.113281 C 156.980469 25.894531 156.773438 25.894531 156.734375 25.894531 C 156.65625 25.894531 156.539062 25.894531 156.464844 26.050781 C 155.359375 28.164062 154.496094 30.414062 153.636719 32.683594 C 153.617188 31.984375 153.601562 30.273438 152.757812 28.101562 C 152.242188 26.730469 151.378906 25.632812 149.890625 25.632812 C 147.214844 25.632812 145.703125 29.039062 145.703125 29.734375 C 145.703125 29.957031 145.894531 29.957031 146.105469 29.957031 L 146.199219 29.855469 "
       id="path58" />
    <g
       clip-path="url(#clip3)"
       clip-rule="nonzero"
       id="g62">
      <path
         style=" stroke:none;fill-rule:nonzero;fill:rgb(0%,0%,0%);fill-opacity:1;"
         d="M 8.382812 4.492188 C 8.382812 4.46875 8.382812 4.257812 8.101562 4.257812 C 7.632812 4.257812 6.085938 4.433594 5.542969 4.46875 C 5.378906 4.492188 5.152344 4.511719 5.152344 4.898438 C 5.152344 5.171875 5.339844 5.171875 5.65625 5.171875 C 6.664062 5.171875 6.699219 5.328125 6.699219 5.539062 C 6.699219 5.695312 6.511719 6.433594 6.402344 6.902344 L 4.683594 14.019531 C 4.445312 15.128906 4.351562 15.480469 4.351562 16.238281 C 4.351562 18.320312 5.472656 19.679688 7.019531 19.679688 C 9.503906 19.679688 12.078125 16.414062 12.078125 13.261719 C 12.078125 11.277344 10.957031 9.761719 9.277344 9.761719 C 8.324219 9.761719 7.464844 10.402344 6.832031 11.085938 Z M 6.402344 12.757812 C 6.53125 12.269531 6.53125 12.230469 6.71875 12 C 7.746094 10.578125 8.699219 10.246094 9.238281 10.246094 C 10.003906 10.246094 10.566406 10.886719 10.566406 12.289062 C 10.566406 13.59375 9.878906 16.101562 9.503906 16.9375 C 8.8125 18.398438 7.839844 19.195312 7.019531 19.195312 C 6.3125 19.195312 5.617188 18.613281 5.617188 16.976562 C 5.617188 16.570312 5.617188 16.140625 5.953125 14.78125 L 6.402344 12.757812 "
         id="path60" />
    </g>
    <g
       clip-path="url(#clip4)"
       clip-rule="nonzero"
       id="g66">
      <path
         style=" stroke:none;fill-rule:nonzero;fill:rgb(0%,0%,0%);fill-opacity:1;"
         d="M 15.4375 13.28125 C 15.4375 12.835938 15.085938 12.40625 14.578125 12.40625 C 14.152344 12.40625 13.738281 12.777344 13.738281 13.28125 C 13.738281 13.828125 14.171875 14.175781 14.578125 14.175781 C 15.046875 14.175781 15.4375 13.789062 15.4375 13.28125 M 13.199219 16.140625 L 13.199219 16.6875 C 14.132812 16.6875 14.265625 16.78125 14.265625 17.542969 L 14.265625 21.507812 C 14.265625 22.171875 14.113281 22.171875 13.164062 22.171875 L 13.164062 22.714844 C 13.179688 22.714844 14.226562 22.65625 14.804688 22.65625 C 15.3125 22.65625 15.851562 22.675781 16.351562 22.714844 L 16.351562 22.171875 C 15.511719 22.171875 15.363281 22.171875 15.363281 21.527344 L 15.363281 15.964844 L 13.199219 16.140625 "
         id="path64" />
    </g>
    <path
       style=" stroke:none;fill-rule:nonzero;fill:rgb(0%,0%,0%);fill-opacity:1;"
       d="M 24.664062 18.085938 C 24.664062 16.761719 24.03125 15.964844 22.460938 15.964844 C 21.265625 15.964844 20.480469 16.667969 20.070312 17.464844 L 20.050781 17.464844 L 20.050781 15.964844 L 17.90625 16.140625 L 17.90625 16.6875 C 18.878906 16.6875 19.003906 16.800781 19.003906 17.542969 L 19.003906 21.507812 C 19.003906 22.171875 18.859375 22.171875 17.90625 22.171875 L 17.90625 22.714844 C 17.925781 22.714844 18.949219 22.65625 19.566406 22.65625 C 20.105469 22.65625 21.132812 22.695312 21.265625 22.714844 L 21.265625 22.171875 C 20.3125 22.171875 20.164062 22.171875 20.164062 21.507812 L 20.164062 18.765625 C 20.164062 17.152344 21.378906 16.394531 22.351562 16.394531 C 23.378906 16.394531 23.503906 17.25 23.503906 18.027344 L 23.503906 21.507812 C 23.503906 22.171875 23.359375 22.171875 22.40625 22.171875 L 22.40625 22.714844 C 22.445312 22.714844 23.46875 22.65625 24.085938 22.65625 C 24.625 22.65625 25.632812 22.695312 25.765625 22.714844 L 25.765625 22.171875 C 24.8125 22.171875 24.664062 22.171875 24.664062 21.507812 L 24.664062 18.085938 "
       id="path68" />
    <g
       clip-path="url(#clip5)"
       clip-rule="nonzero"
       id="g72">
      <path
         style=" stroke:none;fill-rule:nonzero;fill:rgb(0%,0%,0%);fill-opacity:1;"
         d="M 8.398438 38.003906 C 8.398438 37.988281 8.398438 37.773438 8.140625 37.773438 C 7.652344 37.773438 6.125 37.949219 5.5625 37.988281 C 5.394531 38.003906 5.171875 38.027344 5.171875 38.414062 C 5.171875 38.6875 5.359375 38.6875 5.671875 38.6875 C 6.683594 38.6875 6.71875 38.84375 6.71875 39.054688 C 6.71875 39.210938 6.535156 39.949219 6.441406 40.417969 L 4.707031 47.535156 C 4.460938 48.644531 4.367188 48.996094 4.367188 49.753906 C 4.367188 51.835938 5.488281 53.195312 7.039062 53.195312 C 9.519531 53.195312 12.097656 49.929688 12.097656 46.777344 C 12.097656 44.792969 11 43.277344 9.316406 43.277344 C 8.34375 43.277344 7.484375 43.917969 6.851562 44.597656 Z M 6.441406 46.273438 C 6.550781 45.785156 6.550781 45.746094 6.738281 45.515625 C 7.785156 44.09375 8.71875 43.761719 9.261719 43.761719 C 10.027344 43.761719 10.585938 44.40625 10.585938 45.804688 C 10.585938 47.109375 9.894531 49.617188 9.519531 50.453125 C 8.832031 51.914062 7.859375 52.710938 7.039062 52.710938 C 6.328125 52.710938 5.636719 52.125 5.636719 50.492188 C 5.636719 50.085938 5.636719 49.65625 5.972656 48.296875 L 6.441406 46.273438 "
         id="path70" />
    </g>
    <g
       clip-path="url(#clip6)"
       clip-rule="nonzero"
       id="g76">
      <path
         style=" stroke:none;fill-rule:nonzero;fill:rgb(0%,0%,0%);fill-opacity:1;"
         d="M 20.199219 52.984375 C 20.199219 51.058594 18.632812 49.421875 16.597656 49.421875 C 14.582031 49.421875 13.011719 51.058594 13.011719 52.984375 C 13.011719 54.871094 14.621094 56.386719 16.597656 56.386719 C 18.578125 56.386719 20.199219 54.871094 20.199219 52.984375 M 16.597656 55.898438 C 16.058594 55.898438 15.273438 55.707031 14.785156 54.964844 C 14.378906 54.34375 14.339844 53.546875 14.339844 52.847656 C 14.339844 52.183594 14.359375 51.269531 14.859375 50.628906 C 15.234375 50.183594 15.851562 49.851562 16.597656 49.851562 C 17.476562 49.851562 18.09375 50.277344 18.410156 50.746094 C 18.820312 51.347656 18.859375 52.109375 18.859375 52.847656 C 18.859375 53.566406 18.820312 54.382812 18.390625 55.003906 C 18 55.589844 17.328125 55.898438 16.597656 55.898438 "
         id="path74" />
    </g>
    <g
       clip-path="url(#clip7)"
       clip-rule="nonzero"
       id="g80">
      <path
         style=" stroke:none;fill-rule:nonzero;fill:rgb(0%,0%,0%);fill-opacity:1;"
         d="M 26.085938 49.65625 L 26.085938 50.203125 C 27.054688 50.203125 27.1875 50.316406 27.1875 51.058594 L 27.1875 53.683594 C 27.1875 55.023438 26.34375 55.957031 25.226562 55.957031 C 23.898438 55.957031 23.824219 55.296875 23.824219 54.519531 L 23.824219 49.480469 L 21.566406 49.65625 L 21.566406 50.203125 C 22.667969 50.203125 22.667969 50.257812 22.667969 51.621094 L 22.667969 53.917969 C 22.667969 54.964844 22.667969 56.386719 25.132812 56.386719 C 25.449219 56.386719 26.511719 56.386719 27.226562 55.101562 L 27.242188 55.101562 L 27.242188 56.386719 L 29.445312 56.230469 L 29.445312 55.6875 C 28.453125 55.6875 28.34375 55.570312 28.34375 54.832031 L 28.34375 49.480469 L 26.085938 49.65625 "
         id="path78" />
    </g>
    <g
       clip-path="url(#clip8)"
       clip-rule="nonzero"
       id="g84">
      <path
         style=" stroke:none;fill-rule:nonzero;fill:rgb(0%,0%,0%);fill-opacity:1;"
         d="M 32.992188 50.203125 L 35.273438 50.203125 L 35.273438 49.636719 L 32.992188 49.636719 L 32.992188 46.835938 L 32.488281 46.835938 C 32.472656 48.199219 31.871094 49.714844 30.453125 49.773438 L 30.453125 50.203125 L 31.832031 50.203125 L 31.832031 54.324219 C 31.832031 56.035156 33.066406 56.386719 33.886719 56.386719 C 34.859375 56.386719 35.535156 55.511719 35.535156 54.304688 L 35.535156 53.46875 L 35.046875 53.46875 L 35.046875 54.285156 C 35.046875 55.335938 34.578125 55.898438 34 55.898438 C 32.992188 55.898438 32.992188 54.617188 32.992188 54.34375 L 32.992188 50.203125 "
         id="path82" />
    </g>
    <path
       style="fill:none;stroke-width:1.71856;stroke-linecap:square;stroke-linejoin:miter;stroke:#f08f3d;stroke-opacity:1;stroke-miterlimit:3.25"
       d="M 39.75 -15.722656 L 57.277344 -15.722656 L 57.328125 -15.527344 L 57.382812 -15.328125 L 57.488281 -14.9375 L 57.691406 -14.171875 L 57.71875 -14.078125 L 57.746094 -13.988281 L 57.796875 -13.800781 L 57.902344 -13.441406 L 58.109375 -12.761719 L 58.136719 -12.675781 L 58.164062 -12.585938 L 58.222656 -12.417969 L 58.335938 -12.101562 L 58.359375 -12.023438 L 58.390625 -11.949219 L 58.445312 -11.804688 L 58.558594 -11.535156 L 58.589844 -11.472656 L 58.617188 -11.410156 L 58.671875 -11.296875 L 58.699219 -11.238281 L 58.726562 -11.1875 L 58.785156 -11.085938 L 58.808594 -11.039062 L 58.839844 -10.992188 L 58.898438 -10.90625 L 58.921875 -10.867188 L 58.953125 -10.828125 L 59.007812 -10.757812 L 59.121094 -10.644531 L 59.152344 -10.621094 L 59.207031 -10.582031 L 59.234375 -10.566406 L 59.289062 -10.539062 L 59.320312 -10.53125 L 59.375 -10.515625 L 59.402344 -10.515625 L 59.433594 -10.511719 L 59.460938 -10.515625 L 59.488281 -10.515625 L 59.515625 -10.523438 L 59.546875 -10.53125 L 59.570312 -10.539062 L 59.601562 -10.554688 L 59.628906 -10.566406 L 59.65625 -10.582031 L 59.683594 -10.601562 L 59.714844 -10.625 L 59.742188 -10.644531 L 59.796875 -10.699219 L 59.828125 -10.726562 L 59.851562 -10.757812 L 59.910156 -10.828125 L 59.933594 -10.863281 L 60.015625 -10.980469 L 60.070312 -11.066406 L 60.117188 -11.160156 L 60.148438 -11.207031 L 60.167969 -11.257812 L 60.226562 -11.367188 L 60.328125 -11.597656 L 60.351562 -11.660156 L 60.382812 -11.722656 L 60.433594 -11.855469 L 60.539062 -12.132812 L 60.75 -12.75 L 60.773438 -12.835938 L 60.800781 -12.917969 L 60.851562 -13.085938 L 60.957031 -13.4375 L 61.167969 -14.179688 L 61.589844 -15.75 L 61.617188 -15.855469 L 61.644531 -15.964844 L 61.703125 -16.179688 L 61.816406 -16.605469 L 62.046875 -17.433594 L 62.074219 -17.53125 L 62.101562 -17.632812 L 62.160156 -17.828125 L 62.269531 -18.210938 L 62.5 -18.917969 L 62.53125 -19 L 62.554688 -19.082031 L 62.730469 -19.53125 L 62.753906 -19.601562 L 62.785156 -19.671875 L 62.839844 -19.800781 L 62.953125 -20.039062 L 63.015625 -20.148438 L 63.070312 -20.246094 L 63.101562 -20.292969 L 63.125 -20.339844 L 63.183594 -20.421875 L 63.210938 -20.460938 L 63.242188 -20.496094 L 63.269531 -20.53125 L 63.300781 -20.5625 L 63.324219 -20.59375 L 63.386719 -20.648438 L 63.410156 -20.671875 L 63.441406 -20.691406 L 63.46875 -20.710938 L 63.523438 -20.742188 L 63.550781 -20.753906 L 63.582031 -20.765625 L 63.605469 -20.773438 L 63.636719 -20.777344 L 63.6875 -20.785156 L 63.71875 -20.785156 L 63.75 -20.78125 L 63.773438 -20.773438 L 63.804688 -20.769531 L 63.832031 -20.757812 L 63.863281 -20.746094 L 63.886719 -20.734375 L 63.914062 -20.71875 L 63.945312 -20.699219 L 63.96875 -20.679688 L 64 -20.65625 L 64.027344 -20.632812 L 64.113281 -20.546875 L 64.140625 -20.515625 L 64.195312 -20.441406 L 64.222656 -20.40625 L 64.25 -20.363281 L 64.308594 -20.277344 L 64.332031 -20.230469 L 64.363281 -20.179688 L 64.421875 -20.078125 L 64.527344 -19.847656 L 64.558594 -19.785156 L 64.585938 -19.722656 L 64.640625 -19.589844 L 64.753906 -19.308594 L 64.785156 -19.230469 L 64.808594 -19.15625 L 64.867188 -19 L 64.980469 -18.667969 L 65.203125 -17.945312 L 65.226562 -17.855469 L 65.257812 -17.769531 L 65.304688 -17.585938 L 65.410156 -17.214844 L 65.621094 -16.449219 L 66.035156 -14.878906 L 66.0625 -14.78125 L 66.140625 -14.492188 L 66.246094 -14.109375 L 66.453125 -13.378906 L 66.480469 -13.292969 L 66.503906 -13.203125 L 66.558594 -13.03125 L 66.664062 -12.699219 L 66.871094 -12.09375 L 66.898438 -12.015625 L 66.929688 -11.941406 L 66.984375 -11.796875 L 67.011719 -11.726562 L 67.042969 -11.660156 L 67.097656 -11.527344 L 67.128906 -11.464844 L 67.152344 -11.40625 L 67.210938 -11.289062 L 67.324219 -11.078125 L 67.382812 -10.984375 L 67.433594 -10.898438 L 67.496094 -10.820312 L 67.550781 -10.753906 L 67.578125 -10.722656 L 67.632812 -10.664062 L 67.664062 -10.640625 L 67.691406 -10.617188 L 67.75 -10.578125 L 67.777344 -10.5625 L 67.832031 -10.539062 L 67.863281 -10.527344 L 67.890625 -10.519531 L 67.917969 -10.515625 L 67.945312 -10.515625 L 67.976562 -10.511719 L 68 -10.515625 L 68.0625 -10.523438 L 68.085938 -10.53125 L 68.117188 -10.542969 L 68.144531 -10.558594 L 68.171875 -10.570312 L 68.230469 -10.609375 L 68.257812 -10.628906 L 68.285156 -10.652344 L 68.3125 -10.679688 L 68.34375 -10.707031 L 68.367188 -10.738281 L 68.398438 -10.769531 L 68.457031 -10.839844 L 68.480469 -10.878906 L 68.511719 -10.921875 L 68.566406 -11.007812 L 68.597656 -11.054688 L 68.625 -11.101562 L 68.679688 -11.207031 L 68.707031 -11.257812 L 68.738281 -11.3125 L 68.789062 -11.421875 L 68.890625 -11.660156 L 68.921875 -11.722656 L 69 -11.921875 L 69.105469 -12.207031 L 69.128906 -12.285156 L 69.15625 -12.359375 L 69.207031 -12.515625 L 69.3125 -12.839844 L 69.527344 -13.539062 L 69.554688 -13.632812 L 69.582031 -13.722656 L 69.632812 -13.910156 L 69.738281 -14.289062 L 69.949219 -15.074219 L 70.371094 -16.664062 L 70.425781 -16.851562 L 70.476562 -17.042969 L 70.578125 -17.414062 L 70.785156 -18.125 L 70.835938 -18.296875 L 70.890625 -18.460938 L 70.992188 -18.78125 L 71.199219 -19.363281 L 71.226562 -19.429688 L 71.253906 -19.492188 L 71.304688 -19.621094 L 71.40625 -19.855469 L 71.433594 -19.914062 L 71.457031 -19.964844 L 71.511719 -20.070312 L 71.617188 -20.253906 L 71.664062 -20.339844 L 71.71875 -20.414062 L 71.769531 -20.484375 L 71.824219 -20.546875 L 71.84375 -20.574219 L 71.871094 -20.601562 L 71.949219 -20.671875 L 71.976562 -20.691406 L 72.054688 -20.738281 L 72.085938 -20.75 L 72.113281 -20.761719 L 72.167969 -20.777344 L 72.199219 -20.78125 L 72.222656 -20.785156 L 72.253906 -20.785156 L 72.308594 -20.777344 L 72.335938 -20.769531 L 72.367188 -20.761719 L 72.394531 -20.75 L 72.421875 -20.734375 L 72.449219 -20.722656 L 72.480469 -20.703125 L 72.503906 -20.683594 L 72.53125 -20.660156 L 72.5625 -20.636719 L 72.617188 -20.582031 L 72.644531 -20.550781 L 72.703125 -20.484375 L 72.730469 -20.449219 L 72.757812 -20.410156 L 72.816406 -20.324219 L 72.84375 -20.28125 L 72.871094 -20.234375 L 72.929688 -20.136719 L 72.984375 -20.027344 L 73.042969 -19.914062 L 73.152344 -19.664062 L 73.179688 -19.59375 L 73.207031 -19.527344 L 73.265625 -19.382812 L 73.378906 -19.082031 L 73.429688 -18.917969 L 73.488281 -18.753906 L 73.601562 -18.40625 L 73.824219 -17.652344 L 73.851562 -17.5625 L 73.878906 -17.46875 L 73.929688 -17.285156 L 74.035156 -16.902344 L 74.246094 -16.125 L 74.664062 -14.546875 L 74.691406 -14.449219 L 74.71875 -14.355469 L 74.769531 -14.164062 L 74.875 -13.789062 L 75.085938 -13.074219 L 75.113281 -12.992188 L 75.136719 -12.90625 L 75.296875 -12.425781 L 75.320312 -12.347656 L 75.398438 -12.125 L 75.503906 -11.847656 L 75.53125 -11.777344 L 75.5625 -11.707031 L 75.644531 -11.507812 L 75.675781 -11.445312 L 75.730469 -11.324219 L 75.761719 -11.269531 L 75.785156 -11.214844 L 75.847656 -11.109375 L 75.871094 -11.058594 L 75.902344 -11.011719 L 75.984375 -10.882812 L 76.015625 -10.84375 L 76.070312 -10.773438 L 76.101562 -10.742188 L 76.128906 -10.710938 L 76.183594 -10.65625 L 76.214844 -10.632812 L 76.238281 -10.609375 L 76.269531 -10.589844 L 76.300781 -10.574219 L 76.355469 -10.542969 L 76.382812 -10.535156 L 76.410156 -10.523438 L 76.464844 -10.515625 L 76.496094 -10.511719 L 76.519531 -10.515625 L 76.550781 -10.515625 L 76.582031 -10.519531 L 76.609375 -10.527344 L 76.632812 -10.539062 L 76.695312 -10.5625 L 76.71875 -10.578125 L 76.75 -10.597656 L 76.777344 -10.617188 L 76.835938 -10.664062 L 76.890625 -10.722656 L 76.917969 -10.753906 L 76.980469 -10.824219 L 77.003906 -10.859375 L 77.035156 -10.902344 L 77.117188 -11.03125 L 77.148438 -11.082031 L 77.203125 -11.183594 L 77.316406 -11.410156 L 77.371094 -11.527344 L 77.425781 -11.648438 L 77.53125 -11.914062 L 77.738281 -12.507812 L 77.769531 -12.585938 L 77.847656 -12.832031 L 77.953125 -13.175781 L 78.167969 -13.90625 L 78.195312 -14 L 78.21875 -14.097656 L 78.273438 -14.289062 L 78.378906 -14.679688 L 78.589844 -15.476562 L 79.015625 -17.0625 L 79.066406 -17.25 L 79.121094 -17.433594 L 79.226562 -17.796875 L 79.429688 -18.484375 L 79.535156 -18.800781 L 79.640625 -19.101562 L 79.667969 -19.175781 L 79.695312 -19.246094 L 79.742188 -19.382812 L 79.847656 -19.640625 L 79.875 -19.703125 L 79.953125 -19.878906 L 79.980469 -19.933594 L 80 -19.984375 L 80.058594 -20.085938 L 80.078125 -20.136719 L 80.109375 -20.183594 L 80.160156 -20.273438 L 80.183594 -20.3125 L 80.210938 -20.355469 L 80.265625 -20.429688 L 80.289062 -20.464844 L 80.316406 -20.496094 L 80.34375 -20.53125 L 80.421875 -20.613281 L 80.472656 -20.660156 L 80.5 -20.679688 L 80.523438 -20.699219 L 80.546875 -20.714844 L 80.601562 -20.742188 L 80.652344 -20.765625 L 80.679688 -20.773438 L 80.710938 -20.777344 L 80.761719 -20.785156 L 80.792969 -20.785156 L 80.824219 -20.78125 L 80.847656 -20.777344 L 80.878906 -20.769531 L 80.960938 -20.734375 L 80.992188 -20.71875 L 81.015625 -20.699219 L 81.046875 -20.679688 L 81.074219 -20.65625 L 81.105469 -20.632812 L 81.160156 -20.574219 L 81.191406 -20.546875 L 81.242188 -20.476562 L 81.300781 -20.398438 L 81.359375 -20.316406 L 81.414062 -20.222656 L 81.472656 -20.121094 L 81.582031 -19.894531 L 81.609375 -19.835938 L 81.640625 -19.773438 L 81.695312 -19.640625 L 81.808594 -19.359375 L 82.035156 -18.722656 L 82.089844 -18.550781 L 82.144531 -18.371094 L 82.257812 -18 L 82.484375 -17.214844 L 82.515625 -17.117188 L 82.539062 -17.023438 L 82.589844 -16.832031 L 82.699219 -16.441406 L 82.90625 -15.648438 L 83.011719 -15.25 L 83.117188 -14.855469 L 83.328125 -14.082031 L 83.355469 -13.984375 L 83.378906 -13.890625 L 83.433594 -13.707031 L 83.542969 -13.34375 L 83.5625 -13.257812 L 83.589844 -13.167969 L 83.640625 -12.996094 L 83.746094 -12.664062 L 83.777344 -12.582031 L 83.855469 -12.347656 L 83.960938 -12.054688 L 84.015625 -11.914062 L 84.066406 -11.78125 L 84.199219 -11.46875 L 84.285156 -11.289062 L 84.3125 -11.230469 L 84.339844 -11.179688 L 84.398438 -11.074219 L 84.425781 -11.027344 L 84.457031 -10.980469 L 84.511719 -10.894531 L 84.542969 -10.855469 L 84.570312 -10.816406 L 84.628906 -10.75 L 84.683594 -10.6875 L 84.714844 -10.664062 L 84.742188 -10.636719 L 84.769531 -10.613281 L 84.796875 -10.59375 L 84.828125 -10.574219 L 84.859375 -10.5625 L 84.882812 -10.546875 L 84.914062 -10.535156 L 84.96875 -10.519531 L 85 -10.515625 L 85.027344 -10.511719 L 85.054688 -10.511719 L 85.082031 -10.515625 L 85.113281 -10.519531 L 85.167969 -10.535156 L 85.199219 -10.546875 L 85.226562 -10.558594 L 85.253906 -10.574219 L 85.28125 -10.59375 L 85.3125 -10.613281 L 85.367188 -10.660156 L 85.398438 -10.6875 L 85.453125 -10.75 L 85.484375 -10.78125 L 85.539062 -10.855469 L 85.570312 -10.894531 L 85.597656 -10.9375 L 85.65625 -11.027344 L 85.683594 -11.074219 L 85.710938 -11.125 L 85.769531 -11.230469 L 85.796875 -11.285156 L 85.824219 -11.34375 L 85.882812 -11.464844 L 85.996094 -11.730469 L 86.023438 -11.800781 L 86.054688 -11.871094 L 86.109375 -12.019531 L 86.222656 -12.328125 L 86.445312 -13.015625 L 86.472656 -13.109375 L 86.5 -13.199219 L 86.554688 -13.390625 L 86.667969 -13.777344 L 86.894531 -14.585938 L 86.949219 -14.796875 L 87.007812 -15.003906 L 87.117188 -15.425781 L 87.339844 -16.273438 L 87.789062 -17.890625 L 87.816406 -17.976562 L 87.84375 -18.066406 L 87.894531 -18.238281 L 88 -18.570312 L 88.105469 -18.886719 L 88.207031 -19.183594 L 88.261719 -19.324219 L 88.3125 -19.460938 L 88.441406 -19.773438 L 88.46875 -19.828125 L 88.519531 -19.941406 L 88.625 -20.144531 L 88.679688 -20.238281 L 88.730469 -20.324219 L 88.785156 -20.402344 L 88.835938 -20.472656 L 88.914062 -20.566406 L 88.941406 -20.59375 L 88.964844 -20.621094 L 88.992188 -20.644531 L 89.019531 -20.664062 L 89.042969 -20.683594 L 89.070312 -20.703125 L 89.097656 -20.71875 L 89.121094 -20.734375 L 89.171875 -20.757812 L 89.226562 -20.773438 L 89.304688 -20.785156 L 89.332031 -20.785156 L 89.382812 -20.777344 L 89.460938 -20.753906 L 89.492188 -20.738281 L 89.546875 -20.707031 L 89.574219 -20.6875 L 89.605469 -20.664062 L 89.632812 -20.640625 L 89.71875 -20.554688 L 89.742188 -20.523438 L 89.800781 -20.449219 L 89.828125 -20.414062 L 89.859375 -20.371094 L 89.917969 -20.285156 L 89.941406 -20.238281 L 89.972656 -20.1875 L 90.027344 -20.082031 L 90.140625 -19.851562 L 90.171875 -19.789062 L 90.199219 -19.726562 L 90.257812 -19.59375 L 90.371094 -19.304688 L 90.394531 -19.230469 L 90.425781 -19.152344 L 90.484375 -18.992188 L 90.59375 -18.65625 L 90.824219 -17.921875 L 91.273438 -16.289062 L 91.304688 -16.191406 L 91.328125 -16.089844 L 91.382812 -15.890625 L 91.488281 -15.492188 L 91.703125 -14.699219 L 91.722656 -14.597656 L 91.75 -14.503906 L 91.800781 -14.308594 L 91.910156 -13.925781 L 92.121094 -13.195312 L 92.175781 -13.023438 L 92.226562 -12.851562 L 92.335938 -12.527344 L 92.386719 -12.371094 L 92.441406 -12.21875 L 92.546875 -11.933594 L 92.570312 -11.863281 L 92.597656 -11.796875 L 92.652344 -11.667969 L 92.675781 -11.605469 L 92.703125 -11.542969 L 92.8125 -11.316406 L 92.863281 -11.214844 L 92.96875 -11.023438 L 92.996094 -10.984375 L 93.019531 -10.941406 L 93.074219 -10.867188 L 93.101562 -10.832031 L 93.121094 -10.800781 L 93.175781 -10.738281 L 93.226562 -10.683594 L 93.28125 -10.636719 L 93.332031 -10.597656 L 93.386719 -10.566406 L 93.40625 -10.554688 L 93.460938 -10.53125 L 93.484375 -10.523438 L 93.566406 -10.511719 L 93.589844 -10.511719 L 93.671875 -10.523438 L 93.722656 -10.539062 L 93.769531 -10.5625 L 93.824219 -10.59375 L 93.875 -10.632812 L 93.929688 -10.679688 L 93.953125 -10.707031 L 94.003906 -10.761719 L 94.058594 -10.824219 L 94.109375 -10.898438 L 94.136719 -10.933594 L 94.160156 -10.976562 L 94.214844 -11.058594 L 94.265625 -11.152344 L 94.320312 -11.25 L 94.421875 -11.464844 L 94.445312 -11.519531 L 94.472656 -11.582031 L 94.523438 -11.703125 L 94.625 -11.964844 L 94.65625 -12.039062 L 94.6875 -12.117188 L 94.742188 -12.273438 L 94.855469 -12.605469 L 95.078125 -13.328125 L 95.53125 -14.945312 L 95.554688 -15.050781 L 95.640625 -15.367188 L 95.753906 -15.792969 L 95.980469 -16.636719 L 96.007812 -16.742188 L 96.035156 -16.84375 L 96.09375 -17.050781 L 96.203125 -17.453125 L 96.429688 -18.222656 L 96.484375 -18.394531 L 96.535156 -18.558594 L 96.640625 -18.875 L 96.667969 -18.953125 L 96.746094 -19.175781 L 96.851562 -19.453125 L 96.875 -19.519531 L 96.980469 -19.769531 L 97.007812 -19.824219 L 97.058594 -19.9375 L 97.085938 -19.992188 L 97.164062 -20.144531 L 97.269531 -20.320312 L 97.296875 -20.363281 L 97.324219 -20.398438 L 97.375 -20.472656 L 97.425781 -20.535156 L 97.480469 -20.59375 L 97.53125 -20.644531 L 97.558594 -20.664062 L 97.585938 -20.6875 L 97.609375 -20.703125 L 97.636719 -20.722656 L 97.742188 -20.769531 L 97.769531 -20.773438 L 97.796875 -20.78125 L 97.820312 -20.78125 L 97.847656 -20.785156 L 97.875 -20.785156 L 97.925781 -20.777344 L 97.980469 -20.761719 L 98.03125 -20.738281 L 98.109375 -20.691406 L 98.140625 -20.667969 L 98.167969 -20.644531 L 98.226562 -20.589844 L 98.257812 -20.558594 L 98.285156 -20.523438 L 98.34375 -20.449219 L 98.371094 -20.410156 L 98.398438 -20.367188 L 98.460938 -20.273438 L 98.515625 -20.171875 L 98.605469 -20.007812 L 98.632812 -19.949219 L 98.691406 -19.824219 L 98.8125 -19.550781 L 98.835938 -19.476562 L 98.867188 -19.402344 L 98.925781 -19.246094 L 99.042969 -18.917969 L 99.074219 -18.832031 L 99.101562 -18.742188 L 99.160156 -18.566406 L 99.277344 -18.1875 L 99.511719 -17.386719 L 99.574219 -17.175781 L 99.628906 -16.960938 L 99.75 -16.53125 L 99.804688 -16.3125 L 99.863281 -16.089844 L 99.894531 -15.980469 L 99.921875 -15.871094 L 99.949219 -15.757812 L 99.980469 -15.648438 L 117.722656 -15.648438 "
       transform="matrix(1,0,0,-1,0,0)"
       id="path86" />
    <path
       style="stroke:none;fill-rule:nonzero;fill:#f08f3d;fill-opacity:1"
       d="M 125.863281 15.648438 C 122.039062 17.128906 117.292969 19.648438 114.347656 22.320312 L 116.664062 15.648438 L 114.347656 8.976562 C 117.292969 11.648438 122.039062 14.171875 125.863281 15.648438 "
       id="path88" />
    <path
       style="fill:none;stroke-width:1.80577;stroke-linecap:square;stroke-linejoin:miter;stroke:#f08f3d;stroke-opacity:1;stroke-miterlimit:3.25"
       d="M 47.726562 -48.957031 L 56.710938 -48.957031 L 56.765625 -48.738281 L 56.921875 -48.09375 L 57.128906 -47.246094 L 57.15625 -47.144531 L 57.179688 -47.039062 L 57.230469 -46.835938 L 57.335938 -46.4375 L 57.539062 -45.6875 L 57.570312 -45.589844 L 57.601562 -45.496094 L 57.65625 -45.3125 L 57.769531 -44.957031 L 57.824219 -44.792969 L 57.882812 -44.632812 L 57.996094 -44.335938 L 58.019531 -44.265625 L 58.050781 -44.199219 L 58.105469 -44.070312 L 58.132812 -44.007812 L 58.164062 -43.949219 L 58.21875 -43.835938 L 58.246094 -43.785156 L 58.277344 -43.734375 L 58.332031 -43.640625 L 58.386719 -43.554688 L 58.445312 -43.476562 L 58.472656 -43.441406 L 58.527344 -43.378906 L 58.558594 -43.351562 L 58.582031 -43.328125 L 58.613281 -43.304688 L 58.644531 -43.285156 L 58.667969 -43.265625 L 58.695312 -43.25 L 58.757812 -43.226562 L 58.78125 -43.214844 L 58.8125 -43.210938 L 58.839844 -43.207031 L 58.894531 -43.207031 L 58.925781 -43.210938 L 58.976562 -43.226562 L 59.039062 -43.25 L 59.0625 -43.265625 L 59.09375 -43.285156 L 59.121094 -43.304688 L 59.175781 -43.351562 L 59.230469 -43.410156 L 59.261719 -43.445312 L 59.289062 -43.476562 L 59.398438 -43.632812 L 59.449219 -43.722656 L 59.480469 -43.769531 L 59.503906 -43.816406 L 59.554688 -43.921875 L 59.582031 -43.972656 L 59.660156 -44.148438 L 59.765625 -44.402344 L 59.789062 -44.472656 L 59.816406 -44.542969 L 59.867188 -44.6875 L 59.976562 -44.996094 L 60.179688 -45.675781 L 60.214844 -45.769531 L 60.242188 -45.859375 L 60.289062 -46.046875 L 60.398438 -46.4375 L 60.609375 -47.253906 L 61.027344 -48.984375 L 61.054688 -49.105469 L 61.085938 -49.222656 L 61.140625 -49.460938 L 61.257812 -49.929688 L 61.484375 -50.84375 L 61.511719 -50.957031 L 61.542969 -51.066406 L 61.597656 -51.285156 L 61.710938 -51.707031 L 61.941406 -52.484375 L 61.96875 -52.578125 L 61.992188 -52.664062 L 62.046875 -52.839844 L 62.164062 -53.164062 L 62.191406 -53.242188 L 62.222656 -53.316406 L 62.277344 -53.460938 L 62.390625 -53.722656 L 62.417969 -53.785156 L 62.449219 -53.84375 L 62.503906 -53.953125 L 62.535156 -54.003906 L 62.5625 -54.054688 L 62.617188 -54.144531 L 62.679688 -54.230469 L 62.703125 -54.265625 L 62.734375 -54.300781 L 62.761719 -54.335938 L 62.816406 -54.394531 L 62.847656 -54.421875 L 62.878906 -54.445312 L 62.929688 -54.484375 L 62.984375 -54.511719 L 63.015625 -54.523438 L 63.070312 -54.539062 L 63.125 -54.546875 L 63.15625 -54.542969 L 63.179688 -54.542969 L 63.242188 -54.527344 L 63.292969 -54.503906 L 63.324219 -54.488281 L 63.347656 -54.472656 L 63.378906 -54.453125 L 63.40625 -54.429688 L 63.4375 -54.40625 L 63.460938 -54.378906 L 63.519531 -54.316406 L 63.542969 -54.285156 L 63.574219 -54.25 L 63.628906 -54.167969 L 63.65625 -54.125 L 63.6875 -54.082031 L 63.742188 -53.984375 L 63.769531 -53.933594 L 63.800781 -53.878906 L 63.855469 -53.765625 L 63.964844 -53.511719 L 63.996094 -53.445312 L 64.019531 -53.375 L 64.078125 -53.226562 L 64.191406 -52.914062 L 64.214844 -52.832031 L 64.246094 -52.746094 L 64.300781 -52.574219 L 64.414062 -52.207031 L 64.636719 -51.410156 L 64.6875 -51.214844 L 64.742188 -51.015625 L 64.847656 -50.605469 L 65.054688 -49.757812 L 65.472656 -48.027344 L 65.5 -47.917969 L 65.578125 -47.597656 L 65.683594 -47.179688 L 65.886719 -46.371094 L 65.914062 -46.273438 L 65.941406 -46.179688 L 65.992188 -45.988281 L 66.097656 -45.621094 L 66.304688 -44.949219 L 66.363281 -44.785156 L 66.417969 -44.625 L 66.445312 -44.546875 L 66.476562 -44.472656 L 66.535156 -44.328125 L 66.5625 -44.257812 L 66.589844 -44.191406 L 66.644531 -44.0625 L 66.757812 -43.828125 L 66.785156 -43.777344 L 66.816406 -43.726562 L 66.871094 -43.632812 L 66.902344 -43.585938 L 66.984375 -43.46875 L 67.011719 -43.4375 L 67.042969 -43.402344 L 67.125 -43.320312 L 67.15625 -43.300781 L 67.183594 -43.277344 L 67.242188 -43.246094 L 67.292969 -43.222656 L 67.324219 -43.214844 L 67.355469 -43.210938 L 67.378906 -43.207031 L 67.4375 -43.207031 L 67.46875 -43.210938 L 67.492188 -43.21875 L 67.523438 -43.226562 L 67.578125 -43.253906 L 67.605469 -43.269531 L 67.636719 -43.289062 L 67.660156 -43.3125 L 67.722656 -43.359375 L 67.804688 -43.453125 L 67.835938 -43.488281 L 67.890625 -43.566406 L 67.917969 -43.609375 L 67.945312 -43.65625 L 68.003906 -43.753906 L 68.035156 -43.804688 L 68.058594 -43.859375 L 68.117188 -43.972656 L 68.140625 -44.027344 L 68.167969 -44.085938 L 68.222656 -44.207031 L 68.324219 -44.472656 L 68.355469 -44.542969 L 68.382812 -44.613281 L 68.433594 -44.761719 L 68.566406 -45.160156 L 68.644531 -45.417969 L 68.75 -45.777344 L 68.964844 -46.546875 L 68.984375 -46.648438 L 69.015625 -46.75 L 69.066406 -46.957031 L 69.171875 -47.375 L 69.382812 -48.242188 L 69.808594 -49.996094 L 69.859375 -50.207031 L 69.910156 -50.414062 L 70.011719 -50.824219 L 70.21875 -51.609375 L 70.273438 -51.796875 L 70.324219 -51.980469 L 70.425781 -52.332031 L 70.636719 -52.976562 L 70.660156 -53.050781 L 70.6875 -53.121094 L 70.738281 -53.261719 L 70.84375 -53.523438 L 70.945312 -53.757812 L 71.046875 -53.960938 L 71.101562 -54.054688 L 71.152344 -54.136719 L 71.207031 -54.214844 L 71.253906 -54.28125 L 71.285156 -54.3125 L 71.308594 -54.34375 L 71.359375 -54.398438 L 71.386719 -54.421875 L 71.464844 -54.480469 L 71.492188 -54.496094 L 71.519531 -54.507812 L 71.546875 -54.523438 L 71.578125 -54.53125 L 71.601562 -54.539062 L 71.632812 -54.542969 L 71.660156 -54.546875 L 71.691406 -54.542969 L 71.714844 -54.542969 L 71.742188 -54.535156 L 71.773438 -54.53125 L 71.828125 -54.507812 L 71.859375 -54.492188 L 71.882812 -54.476562 L 71.914062 -54.457031 L 71.96875 -54.410156 L 72.054688 -54.324219 L 72.082031 -54.289062 L 72.136719 -54.214844 L 72.164062 -54.175781 L 72.191406 -54.132812 L 72.253906 -54.039062 L 72.304688 -53.9375 L 72.363281 -53.828125 L 72.417969 -53.710938 L 72.476562 -53.582031 L 72.585938 -53.308594 L 72.617188 -53.234375 L 72.640625 -53.15625 L 72.699219 -53 L 72.8125 -52.664062 L 72.839844 -52.578125 L 72.867188 -52.488281 L 72.921875 -52.304688 L 73.035156 -51.917969 L 73.261719 -51.089844 L 73.3125 -50.886719 L 73.367188 -50.679688 L 73.472656 -50.261719 L 73.679688 -49.398438 L 74.101562 -47.660156 L 74.207031 -47.238281 L 74.308594 -46.824219 L 74.519531 -46.035156 L 74.542969 -45.941406 L 74.570312 -45.847656 L 74.621094 -45.667969 L 74.730469 -45.316406 L 74.757812 -45.230469 L 74.78125 -45.148438 L 74.835938 -44.988281 L 74.9375 -44.679688 L 74.996094 -44.523438 L 75.054688 -44.375 L 75.078125 -44.304688 L 75.109375 -44.238281 L 75.164062 -44.105469 L 75.195312 -44.042969 L 75.222656 -43.980469 L 75.28125 -43.863281 L 75.308594 -43.8125 L 75.335938 -43.757812 L 75.394531 -43.660156 L 75.476562 -43.53125 L 75.507812 -43.492188 L 75.5625 -43.421875 L 75.648438 -43.335938 L 75.675781 -43.3125 L 75.707031 -43.292969 L 75.730469 -43.273438 L 75.761719 -43.253906 L 75.792969 -43.242188 L 75.816406 -43.230469 L 75.847656 -43.21875 L 75.875 -43.210938 L 75.90625 -43.207031 L 75.960938 -43.207031 L 76.015625 -43.214844 L 76.046875 -43.222656 L 76.101562 -43.246094 L 76.128906 -43.261719 L 76.191406 -43.300781 L 76.214844 -43.324219 L 76.246094 -43.347656 L 76.277344 -43.375 L 76.300781 -43.40625 L 76.332031 -43.4375 L 76.359375 -43.472656 L 76.414062 -43.546875 L 76.472656 -43.632812 L 76.53125 -43.730469 L 76.585938 -43.832031 L 76.644531 -43.945312 L 76.753906 -44.195312 L 76.78125 -44.261719 L 76.808594 -44.324219 L 76.863281 -44.460938 L 76.96875 -44.75 L 77.179688 -45.40625 L 77.289062 -45.765625 L 77.394531 -46.144531 L 77.605469 -46.953125 L 77.710938 -47.375 L 77.816406 -47.804688 L 78.03125 -48.683594 L 78.453125 -50.4375 L 78.507812 -50.640625 L 78.558594 -50.847656 L 78.660156 -51.246094 L 78.871094 -52.003906 L 78.921875 -52.183594 L 78.976562 -52.359375 L 79.082031 -52.691406 L 79.101562 -52.769531 L 79.128906 -52.847656 L 79.183594 -53 L 79.285156 -53.285156 L 79.339844 -53.417969 L 79.390625 -53.542969 L 79.414062 -53.605469 L 79.445312 -53.664062 L 79.492188 -53.777344 L 79.519531 -53.832031 L 79.546875 -53.882812 L 79.597656 -53.980469 L 79.625 -54.027344 L 79.652344 -54.070312 L 79.703125 -54.152344 L 79.753906 -54.230469 L 79.78125 -54.265625 L 79.835938 -54.328125 L 79.855469 -54.355469 L 79.910156 -54.40625 L 79.960938 -54.453125 L 79.988281 -54.46875 L 80.015625 -54.488281 L 80.09375 -54.523438 L 80.144531 -54.539062 L 80.175781 -54.542969 L 80.203125 -54.546875 L 80.230469 -54.542969 L 80.261719 -54.542969 L 80.316406 -54.527344 L 80.34375 -54.515625 L 80.375 -54.503906 L 80.429688 -54.472656 L 80.457031 -54.453125 L 80.488281 -54.429688 L 80.511719 -54.410156 L 80.542969 -54.382812 L 80.597656 -54.320312 L 80.625 -54.285156 L 80.683594 -54.210938 L 80.738281 -54.125 L 80.796875 -54.03125 L 80.851562 -53.929688 L 80.90625 -53.816406 L 81.023438 -53.570312 L 81.050781 -53.5 L 81.078125 -53.433594 L 81.136719 -53.289062 L 81.25 -52.976562 L 81.472656 -52.273438 L 81.5 -52.179688 L 81.53125 -52.082031 L 81.585938 -51.886719 L 81.699219 -51.476562 L 81.921875 -50.605469 L 81.953125 -50.503906 L 81.976562 -50.398438 L 82.132812 -49.753906 L 82.347656 -48.878906 L 82.558594 -48.003906 L 82.765625 -47.148438 L 82.792969 -47.042969 L 82.820312 -46.941406 L 82.871094 -46.734375 L 82.976562 -46.335938 L 83.03125 -46.140625 L 83.082031 -45.949219 L 83.1875 -45.585938 L 83.242188 -45.40625 L 83.292969 -45.238281 L 83.402344 -44.910156 L 83.421875 -44.832031 L 83.503906 -44.609375 L 83.609375 -44.335938 L 83.636719 -44.261719 L 83.667969 -44.195312 L 83.722656 -44.066406 L 83.753906 -44.003906 L 83.78125 -43.945312 L 83.839844 -43.832031 L 83.867188 -43.777344 L 83.894531 -43.726562 L 83.953125 -43.632812 L 84.007812 -43.546875 L 84.066406 -43.472656 L 84.09375 -43.4375 L 84.125 -43.40625 L 84.152344 -43.375 L 84.179688 -43.347656 L 84.210938 -43.324219 L 84.238281 -43.300781 L 84.292969 -43.261719 L 84.324219 -43.25 L 84.351562 -43.234375 L 84.378906 -43.226562 L 84.441406 -43.210938 L 84.523438 -43.210938 L 84.578125 -43.226562 L 84.609375 -43.234375 L 84.636719 -43.246094 L 84.664062 -43.261719 L 84.695312 -43.28125 L 84.75 -43.320312 L 84.78125 -43.347656 L 84.835938 -43.402344 L 84.863281 -43.4375 L 84.894531 -43.46875 L 84.921875 -43.507812 L 84.980469 -43.589844 L 85.007812 -43.632812 L 85.035156 -43.679688 L 85.09375 -43.777344 L 85.152344 -43.886719 L 85.238281 -44.066406 L 85.265625 -44.128906 L 85.320312 -44.261719 L 85.4375 -44.554688 L 85.492188 -44.710938 L 85.546875 -44.871094 L 85.660156 -45.214844 L 85.882812 -45.976562 L 85.914062 -46.074219 L 85.941406 -46.179688 L 85.996094 -46.386719 L 86.109375 -46.8125 L 86.332031 -47.707031 L 86.359375 -47.824219 L 86.386719 -47.9375 L 86.445312 -48.167969 L 86.558594 -48.632812 L 86.78125 -49.566406 L 87.230469 -51.351562 L 87.28125 -51.546875 L 87.335938 -51.738281 L 87.441406 -52.105469 L 87.460938 -52.195312 L 87.492188 -52.28125 L 87.539062 -52.453125 L 87.644531 -52.78125 L 87.699219 -52.9375 L 87.75 -53.085938 L 87.855469 -53.367188 L 87.882812 -53.429688 L 87.910156 -53.496094 L 87.960938 -53.621094 L 88.066406 -53.84375 L 88.117188 -53.945312 L 88.171875 -54.039062 L 88.222656 -54.125 L 88.324219 -54.277344 L 88.355469 -54.308594 L 88.378906 -54.339844 L 88.402344 -54.367188 L 88.476562 -54.441406 L 88.503906 -54.460938 L 88.53125 -54.476562 L 88.558594 -54.496094 L 88.636719 -54.527344 L 88.660156 -54.539062 L 88.742188 -54.550781 L 88.765625 -54.546875 L 88.792969 -54.546875 L 88.820312 -54.535156 L 88.84375 -54.53125 L 88.871094 -54.519531 L 88.898438 -54.511719 L 88.953125 -54.480469 L 88.980469 -54.460938 L 89.039062 -54.414062 L 89.125 -54.328125 L 89.179688 -54.257812 L 89.238281 -54.179688 L 89.265625 -54.136719 L 89.296875 -54.089844 L 89.351562 -53.992188 L 89.378906 -53.941406 L 89.40625 -53.886719 L 89.464844 -53.773438 L 89.578125 -53.515625 L 89.605469 -53.449219 L 89.632812 -53.378906 L 89.6875 -53.230469 L 89.804688 -52.914062 L 89.859375 -52.742188 L 89.917969 -52.566406 L 90.03125 -52.195312 L 90.253906 -51.386719 L 90.710938 -49.582031 L 90.761719 -49.363281 L 90.816406 -49.144531 L 90.921875 -48.703125 L 91.132812 -47.824219 L 91.160156 -47.71875 L 91.1875 -47.609375 L 91.238281 -47.394531 L 91.34375 -46.976562 L 91.558594 -46.167969 L 91.582031 -46.074219 L 91.609375 -45.976562 L 91.660156 -45.789062 L 91.769531 -45.429688 L 91.796875 -45.34375 L 91.820312 -45.257812 L 91.875 -45.089844 L 91.980469 -44.773438 L 92.007812 -44.695312 L 92.03125 -44.625 L 92.085938 -44.480469 L 92.113281 -44.410156 L 92.136719 -44.34375 L 92.191406 -44.214844 L 92.21875 -44.152344 L 92.246094 -44.09375 L 92.296875 -43.980469 L 92.40625 -43.769531 L 92.429688 -43.726562 L 92.457031 -43.679688 L 92.507812 -43.597656 L 92.53125 -43.558594 L 92.609375 -43.453125 L 92.636719 -43.425781 L 92.664062 -43.394531 L 92.6875 -43.367188 L 92.742188 -43.320312 L 92.792969 -43.28125 L 92.816406 -43.265625 L 92.84375 -43.25 L 92.894531 -43.226562 L 92.949219 -43.210938 L 92.972656 -43.207031 L 93.054688 -43.207031 L 93.078125 -43.210938 L 93.101562 -43.222656 L 93.132812 -43.230469 L 93.15625 -43.238281 L 93.179688 -43.253906 L 93.207031 -43.265625 L 93.234375 -43.28125 L 93.285156 -43.320312 L 93.339844 -43.367188 L 93.390625 -43.421875 L 93.4375 -43.484375 L 93.492188 -43.554688 L 93.542969 -43.632812 L 93.597656 -43.71875 L 93.648438 -43.816406 L 93.675781 -43.863281 L 93.699219 -43.914062 L 93.753906 -44.023438 L 93.855469 -44.257812 L 93.882812 -44.324219 L 93.90625 -44.386719 L 93.960938 -44.523438 L 94.0625 -44.8125 L 94.09375 -44.894531 L 94.175781 -45.152344 L 94.285156 -45.519531 L 94.511719 -46.320312 L 94.964844 -48.101562 L 94.992188 -48.21875 L 95.078125 -48.570312 L 95.191406 -49.039062 L 95.414062 -49.972656 L 95.441406 -50.085938 L 95.472656 -50.203125 L 95.523438 -50.429688 L 95.640625 -50.875 L 95.863281 -51.722656 L 95.917969 -51.910156 L 95.96875 -52.089844 L 96.074219 -52.441406 L 96.097656 -52.527344 L 96.128906 -52.609375 L 96.175781 -52.773438 L 96.285156 -53.078125 L 96.3125 -53.152344 L 96.339844 -53.222656 L 96.390625 -53.359375 L 96.441406 -53.492188 L 96.496094 -53.617188 L 96.523438 -53.675781 L 96.546875 -53.730469 L 96.601562 -53.84375 L 96.703125 -54.039062 L 96.757812 -54.125 L 96.808594 -54.203125 L 96.835938 -54.242188 L 96.863281 -54.277344 L 96.914062 -54.339844 L 96.9375 -54.367188 L 96.96875 -54.394531 L 96.996094 -54.417969 L 97.015625 -54.441406 L 97.046875 -54.460938 L 97.074219 -54.480469 L 97.097656 -54.496094 L 97.179688 -54.53125 L 97.203125 -54.539062 L 97.28125 -54.550781 L 97.308594 -54.546875 L 97.335938 -54.546875 L 97.414062 -54.523438 L 97.46875 -54.5 L 97.492188 -54.484375 L 97.546875 -54.445312 L 97.570312 -54.421875 L 97.601562 -54.394531 L 97.660156 -54.332031 L 97.722656 -54.261719 L 97.839844 -54.085938 L 97.894531 -53.984375 L 97.953125 -53.875 L 98.015625 -53.753906 L 98.042969 -53.691406 L 98.070312 -53.625 L 98.128906 -53.488281 L 98.246094 -53.1875 L 98.308594 -53.023438 L 98.363281 -52.851562 L 98.484375 -52.488281 L 98.511719 -52.394531 L 98.539062 -52.296875 L 98.597656 -52.097656 L 98.714844 -51.683594 L 98.953125 -50.796875 L 98.980469 -50.683594 L 99.007812 -50.566406 L 99.066406 -50.332031 L 99.1875 -49.851562 L 99.304688 -49.367188 L 99.332031 -49.246094 L 99.390625 -49.003906 L 99.421875 -48.878906 L 125.292969 -48.878906 "
       transform="matrix(1,0,0,-1,0,0)"
       id="path90" />
    <path
       style="stroke:none;fill-rule:nonzero;fill:#f08f3d;fill-opacity:1"
       d="M 39.183594 48.957031 C 43.203125 50.511719 48.191406 53.160156 51.28125 55.96875 L 48.847656 48.957031 L 51.28125 41.945312 C 48.191406 44.753906 43.203125 47.402344 39.183594 48.957031 "
       id="path92" />
    <path
       style="fill:none;stroke-width:0.75;stroke-linecap:butt;stroke-linejoin:miter;stroke:rgb(0%,0%,0%);stroke-opacity:1;stroke-miterlimit:4;"
       d="M 1.027344 0.710938 L 132.269531 0.710938 L 132.269531 62.691406 L 0 62.691406 "
       id="path94" />
  </g>
</svg>
